<?xml version="1.0" encoding="UTF-8"?>
<svg width="1500" height="1500" version="1.1" viewBox="0 0 1500 1500" xmlns="http://www.w3.org/2000/svg"><title>Live Audio Tool</title><path d="m1260.1 634.62v115.38q0 199.22-130.62 346.6-130.63 147.39-322.8 169.02v118.99h226.71q23.026 0 39.852 17.127 16.826 17.128 16.826 40.565t-16.826 40.565q-16.826 17.127-39.852 17.127h-566.78q-23.025 0-39.852-17.127t-16.826-40.565 16.826-40.565q16.826-17.127 39.852-17.127h226.71v-118.99q-192.17-21.635-322.8-169.02-130.62-147.39-130.62-346.6v-115.38q0-23.438 16.826-40.565 16.826-17.127 39.852-17.127 23.025 0 39.852 17.127 16.826 17.127 16.826 40.565v115.38q0 166.77 116.46 285.31 116.46 118.54 280.29 118.54 163.83 0 280.29-118.54 116.46-118.54 116.46-285.31v-115.38q0-23.438 16.826-40.565 16.826-17.127 39.852-17.127 23.026 0 39.852 17.127 16.826 17.127 16.826 40.565zm-226.71-346.15v461.54q0 118.99-83.246 203.73-83.246 84.736-200.14 84.736-116.9 0-200.14-84.736-83.246-84.736-83.246-203.73v-461.54q0-118.99 83.246-203.73 83.246-84.736 200.14-84.736 116.9 0 200.14 84.736 83.246 84.736 83.246 203.73z" fill="#f00" stroke-width=".89348"/><g transform="matrix(.75066 0 0 .89722 557.56 78.221)" fill="#fff"><g fill="#fff"><g transform="matrix(1.1413,0,0,1,-3.5034,0)" fill="#fff" stroke-width="1.1465"><path d="m366.24 219.04c4.533 0 9.067-2.6066 12.467-7.0759 6.233-8.9385 5.95-23.092-1.133-31.657-41.083-49.534-94.35-77.094-150.45-77.094-55.25 0-108.23 26.815-149.03 75.605-7.083 8.1932-7.367 22.346-1.133 31.657 6.233 9.3105 17 9.6838 24.083 1.4893 34.567-41.341 79.617-64.059 126.37-64.059 47.317 0 92.65 23.092 127.22 65.176 3.398 4.0959 7.365 5.9586 11.615 5.9586z"/><path d="m302.78 319.22c4.533 0 9.067-2.6066 12.467-7.0759 6.233-8.9385 5.95-23.092-1.133-31.657-23.8-28.678-54.683-44.692-86.7-44.692s-62.617 15.642-86.133 43.575c-7.083 8.1932-7.367 22.346-1.133 31.657 6.233 9.3105 17 9.6838 24.083 1.4893 17.283-20.857 39.95-32.03 63.183-32.03 23.8 0 46.467 11.545 63.75 32.774 3.399 4.0972 7.649 5.9599 11.616 5.9599z"/><path d="m445.86 128.16c4.533 0 9.067-2.6066 12.467-7.0759 6.233-8.9385 5.95-23.092-1.133-31.657-62.9-76.349-144.78-118.06-230.35-118.06-84.717 0-166.03 41.341-228.65 115.83-7.083 8.1932-7.367 22.346-1.133 31.657s17 9.6838 24.083 1.4893c56.383-67.411 129.48-104.28 205.7-104.28 77.067 0 150.73 37.617 207.4 106.14 3.4 3.7239 7.65 5.9586 11.616 5.9586z"/></g></g></g></svg>
